<?xml version="1.0" encoding="UTF-8"?>
<svg id="Layer_1" xmlns="http://www.w3.org/2000/svg" version="1.1" viewBox="0 0 2000 2000">
  <!-- Generator: Adobe Illustrator 29.5.1, SVG Export Plug-In . SVG Version: 2.1.0 Build 141)  -->
  <defs>
    <style>
      .st0 {
        fill: #55595a;
      }

      .st1 {
        fill: #02748d;
      }
    </style>
  </defs>
  <path class="st1" d="M753.9,1322.9h-433.9c-47.5,0-86.1-38.5-86.1-86.1v-433.9c0-47.5,38.5-86.1,86.1-86.1h433.9c47.5,0,86.1,38.5,86.1,86.1v433.9c0,47.5-38.5,86.1-86.1,86.1ZM286.2,882.5c1.1,2.4,1.4,5,2.7,7.4,3.6,7,11,11.3,18.8,11.9v24.3c-8.3-.2-16.7,5.9-19.7,13.5-.7,1.8-.9,3.8-1.8,5.5v6.1c.9,1.7,1.1,3.7,1.8,5.5,3.1,7.8,11.2,13.6,19.7,13.5v24.3c-8,.8-15.2,4.9-18.8,12.1s-1.6,4.7-2.6,7.1v6.5c.9,1.3.9,3,1.4,4.5,3.2,8.6,10.9,13.9,20,14.6v24.2c-1.8.5-3.6.5-5.3.9-6.1,1.6-11.9,6.8-14.2,12.6-.7,1.8-.9,3.8-1.9,5.4v6.5c1,2.4,1.4,5,2.7,7.4,3.6,7,11,11.2,18.8,11.9v24.3c-7.7,0-15.2,4.9-18.8,11.7s-1.7,4.9-2.7,7.4v6.1c.9,1.7,1.1,3.7,1.8,5.5,3,7.7,11.3,13.7,19.7,13.5v42.7c1.6,15.3,12,28.7,26.6,33.6,3.3,1.1,6.7,1.5,10.1,2.3h312.8l8.2-1.8c15.5-4.6,26.9-18.6,28.2-34.8v-182.6h-23.8v181.6c0,6-8,13.6-14.1,13.5h-310.4c-6-.1-13.8-7.5-13.8-13.5v-41h14.3c6.6,15.9,31.1,12,32.7-5.3,1.9-20.8-27.6-26.4-33.7-6.6h-13.3v-56.8h14.3c9.4,20,39.9,6.9,31.4-13.8-6.1-15-27.5-13.4-32.6,1.6h-13.1v-56.5h14.1c7.1,15.4,31.2,11.7,32.8-5.3,2.1-21-27.2-26.7-33.9-7h-13.1v-56.8h14.3c0,0,.4,1.3.7,1.8,8.8,14,30.5,9.1,31.9-7.1s-27.6-26.4-33.7-6.6h-13.3v-56.8h14.3c9.5,20.1,40.1,6.7,31.3-14.1-6.3-14.9-27.4-13.1-32.5,1.8h-13.1v-62.8c0-5.6,7.5-13.8,13.1-13.8h296.3v-23.8h-297c-14.2,1.1-27.1,10.3-32.9,23.3-6,13.7-2.3,30.2-3.4,44.8-9.4.9-17.1,6.3-20.2,15.4-.4,1.3-.3,2.8-1.2,3.7v6.5ZM307.7,889.3c-12.2-1-12.1-18.8,0-20.1v20.1ZM307.7,938v20.4c-12.2-1.7-12.1-18.7,0-20.4ZM307.7,1027.1c-12-1.2-12.2-18.9,0-20.1v20.1ZM307.7,1095.9c-12.2-1-12.1-18.7,0-20.1v20.1ZM307.7,1144.5v20.4c-12.1-1.6-12.2-18.7,0-20.4ZM726.3,784.1c-7.3.7-15.6,4.7-21.3,9.2-14.2,13.3-27.6,27.5-41.6,41l77.9,89.2.7.3,41.1-64.4c1.9-4,4.1-8.6,4.5-13s-.3-9.2,0-13.6c-1.1-5.4-3-10.7-6-15.3-2.6-4.1-6.5-7.7-10-11.1-7.2-6.9-16.4-16.4-25.8-19.8-3.1-1.2-6.4-1.8-9.6-2.5h-9.9ZM527.1,1120.4c3.8-3.9,3.4-7.6,6.7-10.2s30.8-13.8,40.3-16.9c13.9-4.6,26-15.2,36-25.6l114.9-122.4c1-1.7,1-3.9-.4-5.5l-73.7-84.2c-3.9-2.5-6,0-8.5,2.7-11.3,12-22.3,26.7-32.8,39.7-28.3,34.9-55.8,70.6-83.7,105.9-10,20.3-11,43.6-15.5,65.5s-1.2,19.9-7.9,8.2c-24.4-30.5-48.5-61.3-73.2-91.6-20.9-17-47.8,6-34.7,29.9l94.2,113.6c14.8,10.5,27.5,2,38.2-9.1ZM643.2,965.6c-18.4,19.6-35.3,41.4-53.9,60.8-12.2,12.8-28.7.4-20.7-14.3l53.4-64c2.1-2.3,5.1-4,8.3-4.3,10.7-1.1,20.6,12.7,13,21.8Z"/>
  <g>
    <path class="st0" d="M993.5,751.4v81.9c10.1-10.5,20.4-18.5,30.8-24.1,10.5-5.6,23.4-8.3,38.9-8.3s33.4,4.2,46.8,12.7c13.4,8.4,23.8,20.7,31.2,36.7,7.4,16,11.1,35.1,11.1,57.1s-2.1,31.1-6.2,44.7c-4.1,13.6-10.1,25.3-18,35.3-7.9,10-17.4,17.6-28.6,23.1-11.2,5.4-23.5,8.2-37,8.2s-16-1-23.3-2.9c-7.3-2-13.5-4.5-18.6-7.8-5.1-3.2-9.5-6.5-13.1-9.9-3.6-3.4-8.3-8.5-14.2-15.3v5.3c0,10.1-2.4,17.7-7.3,22.9-4.8,5.2-11,7.8-18.5,7.8s-13.6-2.6-18.2-7.8c-4.5-5.2-6.8-12.8-6.8-22.9v-234.1c0-10.9,2.2-19.1,6.6-24.6,4.4-5.6,10.5-8.3,18.4-8.3s14.6,2.7,19,8c4.4,5.3,6.7,12.9,6.7,22.7ZM996,910.7c0,21.3,4.9,37.7,14.6,49.2,9.8,11.5,22.6,17.2,38.4,17.2s25.1-5.9,34.9-17.6c9.8-11.7,14.6-28.5,14.6-50.4s-2-26.3-6.1-36.5c-4.1-10.2-9.8-18.1-17.3-23.7-7.5-5.6-16.2-8.3-26.1-8.3s-19.3,2.8-27.3,8.3c-8,5.6-14.3,13.6-18.9,24.2-4.6,10.5-6.9,23.1-6.9,37.6Z"/>
    <path class="st0" d="M1222.4,775.6c-7.5,0-13.8-2.3-19.1-6.9-5.3-4.6-8-11.1-8-19.4s2.7-13.8,8.1-18.8c5.4-4.9,11.8-7.4,19-7.4s13.1,2.2,18.5,6.7c5.4,4.5,8.1,10.9,8.1,19.4s-2.6,14.7-7.9,19.3c-5.2,4.6-11.5,7-18.7,7ZM1249,831v155c0,10.7-2.6,18.9-7.7,24.4-5.1,5.5-11.6,8.2-19.4,8.2s-14.2-2.8-19.1-8.4c-4.9-5.6-7.4-13.7-7.4-24.2v-153.4c0-10.6,2.5-18.6,7.4-24,4.9-5.4,11.3-8.1,19.1-8.1s14.3,2.7,19.4,8.1c5.1,5.4,7.7,12.8,7.7,22.4Z"/>
    <path class="st0" d="M1353.8,751.4v81.9c10.1-10.5,20.4-18.5,30.8-24.1,10.5-5.6,23.4-8.3,38.9-8.3s33.4,4.2,46.8,12.7c13.4,8.4,23.8,20.7,31.2,36.7,7.4,16,11.1,35.1,11.1,57.1s-2.1,31.1-6.2,44.7c-4.1,13.6-10.1,25.3-18,35.3-7.9,10-17.4,17.6-28.6,23.1-11.2,5.4-23.5,8.2-37,8.2s-16-1-23.3-2.9c-7.3-2-13.5-4.5-18.6-7.8-5.1-3.2-9.5-6.5-13.1-9.9-3.6-3.4-8.3-8.5-14.2-15.3v5.3c0,10.1-2.4,17.7-7.3,22.9-4.8,5.2-11,7.8-18.5,7.8s-13.6-2.6-18.2-7.8c-4.5-5.2-6.8-12.8-6.8-22.9v-234.1c0-10.9,2.2-19.1,6.6-24.6,4.4-5.6,10.5-8.3,18.4-8.3s14.6,2.7,19,8c4.4,5.3,6.7,12.9,6.7,22.7ZM1356.4,910.7c0,21.3,4.9,37.7,14.6,49.2,9.8,11.5,22.6,17.2,38.4,17.2s25.1-5.9,34.9-17.6c9.8-11.7,14.6-28.5,14.6-50.4s-2-26.3-6.1-36.5c-4.1-10.2-9.8-18.1-17.3-23.7-7.5-5.6-16.2-8.3-26.1-8.3s-19.3,2.8-27.3,8.3c-8,5.6-14.3,13.6-18.9,24.2-4.6,10.5-6.9,23.1-6.9,37.6Z"/>
    <path class="st0" d="M1756.4,909.5c0,16-2.5,30.7-7.5,44.2-5,13.5-12.2,25.1-21.6,34.8-9.4,9.7-20.7,17.1-33.8,22.3-13.1,5.2-27.8,7.8-44.2,7.8s-30.8-2.6-43.8-7.9c-13-5.2-24.2-12.7-33.7-22.5-9.5-9.8-16.7-21.3-21.6-34.6-4.9-13.3-7.4-28-7.4-44.1s2.5-31.1,7.5-44.6c5-13.5,12.1-25,21.4-34.6,9.3-9.6,20.6-16.9,33.8-22.1,13.2-5.2,27.8-7.8,43.8-7.8s31,2.6,44.2,7.9c13.2,5.2,24.5,12.7,34,22.4,9.4,9.7,16.6,21.2,21.5,34.6,4.9,13.4,7.4,28.1,7.4,44.2ZM1702.6,909.5c0-21.9-4.8-38.9-14.4-51.1-9.6-12.2-22.6-18.3-38.8-18.3s-19.7,2.7-27.7,8.2c-8,5.4-14.1,13.5-18.5,24.1s-6.5,23-6.5,37.1,2.1,26.3,6.4,36.7c4.3,10.5,10.3,18.5,18.3,24.1,7.9,5.6,17.2,8.3,28,8.3,16.2,0,29.2-6.1,38.8-18.4,9.6-12.2,14.4-29.2,14.4-50.8Z"/>
    <path class="st0" d="M992.7,1130.5v6.5c9.4-12.4,19.7-21.6,30.9-27.4,11.2-5.8,24.1-8.7,38.6-8.7s26.8,3.1,37.9,9.2c11.1,6.2,19.4,14.9,24.9,26.1,3.5,6.5,5.8,13.6,6.9,21.2,1,7.6,1.6,17.3,1.6,29.1v99.8c0,10.7-2.5,18.9-7.4,24.4-4.9,5.5-11.3,8.2-19.1,8.2s-14.5-2.8-19.4-8.4c-5-5.6-7.5-13.7-7.5-24.2v-89.4c0-17.7-2.5-31.2-7.4-40.6-4.9-9.4-14.7-14-29.4-14s-18.3,2.8-26.1,8.5c-7.9,5.7-13.6,13.5-17.3,23.5-2.6,8-3.9,22.9-3.9,44.8v67.2c0,10.9-2.5,19-7.6,24.5-5,5.4-11.6,8.2-19.5,8.2s-14.1-2.8-19.1-8.4c-5-5.6-7.5-13.7-7.5-24.2v-155c0-10.2,2.2-17.8,6.7-22.9,4.4-5,10.5-7.6,18.3-7.6s9,1.1,12.8,3.3c3.8,2.2,6.8,5.6,9.1,10,2.3,4.5,3.4,9.9,3.4,16.3Z"/>
    <path class="st0" d="M1387.6,1209.8c0,16-2.5,30.7-7.5,44.2-5,13.5-12.2,25.1-21.6,34.8-9.4,9.7-20.7,17.1-33.8,22.3-13.1,5.2-27.8,7.8-44.2,7.8s-30.8-2.6-43.8-7.9c-13-5.2-24.2-12.7-33.7-22.5-9.5-9.8-16.7-21.3-21.6-34.6-4.9-13.3-7.4-28-7.4-44.1s2.5-31.1,7.5-44.6c5-13.5,12.1-25,21.4-34.6,9.3-9.6,20.6-16.9,33.8-22.1,13.2-5.2,27.8-7.8,43.8-7.8s31,2.6,44.2,7.9c13.2,5.2,24.5,12.7,34,22.4,9.4,9.7,16.6,21.2,21.5,34.6,4.9,13.4,7.4,28.1,7.4,44.2ZM1333.8,1209.8c0-21.9-4.8-38.9-14.4-51.1-9.6-12.2-22.6-18.3-38.8-18.3s-19.7,2.7-27.7,8.2c-8,5.4-14.1,13.5-18.5,24.1-4.3,10.6-6.5,23-6.5,37.1s2.1,26.3,6.4,36.7c4.3,10.5,10.3,18.5,18.3,24.1,7.9,5.6,17.2,8.3,28,8.3,16.2,0,29.2-6.1,38.8-18.4,9.6-12.2,14.4-29.2,14.4-50.8Z"/>
    <path class="st0" d="M1432.8,1105.5h5.9v-32.2c0-8.6.2-15.4.7-20.3.5-4.9,1.7-9.1,3.8-12.7,2.1-3.7,5.1-6.6,9-8.9,3.9-2.3,8.3-3.4,13.2-3.4s13,2.6,18.5,7.7c3.7,3.4,6,7.6,7,12.5,1,4.9,1.5,11.9,1.5,20.9v36.5h19.6c7.6,0,13.4,1.8,17.4,5.4,4,3.6,6,8.2,6,13.8s-2.8,12.2-8.5,15.1c-5.7,2.9-13.8,4.3-24.5,4.3h-10v98.6c0,8.4.3,14.8.9,19.3.6,4.5,2.2,8.2,4.7,11,2.6,2.8,6.7,4.2,12.5,4.2s7.4-.6,12.8-1.7c5.4-1.1,9.6-1.7,12.6-1.7,4.3,0,8.2,1.7,11.7,5.2,3.5,3.5,5.2,7.8,5.2,12.9,0,8.6-4.7,15.3-14.1,19.8-9.4,4.6-23,6.9-40.7,6.9s-29.5-2.8-38.1-8.4c-8.6-5.6-14.3-13.4-17-23.4-2.7-9.9-4-23.2-4-39.9v-102.9h-7.1c-7.7,0-13.6-1.8-17.7-5.5-4.1-3.7-6.1-8.3-6.1-13.9s2.1-10.2,6.4-13.8c4.3-3.6,10.4-5.4,18.6-5.4Z"/>
    <path class="st0" d="M1721.9,1223h-104.9c.1,12.2,2.6,22.9,7.4,32.2,4.8,9.3,11.1,16.3,19,21,7.9,4.7,16.7,7.1,26.2,7.1s12.3-.8,17.6-2.3c5.3-1.5,10.4-3.9,15.4-7.1,5-3.2,9.6-6.6,13.7-10.3,4.2-3.7,9.6-8.6,16.3-14.9,2.7-2.4,6.7-3.5,11.8-3.5s9.9,1.5,13.4,4.5c3.4,3,5.1,7.3,5.1,12.8s-1.9,10.5-5.7,17c-3.8,6.5-9.5,12.7-17.2,18.7-7.7,6-17.3,10.9-28.9,14.8-11.6,3.9-24.9,5.9-40,5.9-34.4,0-61.2-9.8-80.3-29.5-19.1-19.6-28.7-46.3-28.7-79.9s2.4-30.5,7.1-44.1c4.7-13.6,11.6-25.2,20.6-34.9,9-9.7,20.2-17.1,33.4-22.3,13.2-5.2,27.9-7.8,44-7.8s38.9,4.4,53.9,13.3c15,8.8,26.2,20.3,33.7,34.3,7.5,14,11.2,28.3,11.2,42.8s-3.9,22.2-11.6,26.2c-7.7,4-18.6,6-32.6,6ZM1617,1192.5h97.2c-1.3-18.3-6.3-32-14.8-41.1-8.6-9.1-19.9-13.6-33.9-13.6s-24.3,4.6-32.9,13.8c-8.6,9.2-13.8,22.9-15.6,40.9Z"/>
  </g>
</svg>